<mxfile host="app.diagrams.net" modified="2022-08-12T04:36:15.192Z" agent="5.0 (Windows NT 10.0; Win64; x64) AppleWebKit/537.36 (KHTML, like Gecko) Chrome/104.0.0.0 Safari/537.36" etag="GKg9TCLE-Zdi6YmwirqJ" version="20.0.1" type="github">
  <diagram id="ryQIot6Qc4r87dp-uxoA" name="Page-1">
    <mxGraphModel dx="1038" dy="623" grid="1" gridSize="10" guides="1" tooltips="1" connect="1" arrows="1" fold="1" page="1" pageScale="1" pageWidth="850" pageHeight="1100" math="0" shadow="0">
      <root>
        <mxCell id="0" />
        <mxCell id="1" parent="0" />
        <mxCell id="uNYrG_YwcTX0N1A9Y3Y--1" value="Actor" style="shape=umlActor;verticalLabelPosition=bottom;verticalAlign=top;html=1;" vertex="1" parent="1">
          <mxGeometry x="50" y="260" width="30" height="60" as="geometry" />
        </mxCell>
        <mxCell id="uNYrG_YwcTX0N1A9Y3Y--13" value="" style="endArrow=none;html=1;rounded=0;exitX=1;exitY=0.3333333333333333;exitDx=0;exitDy=0;exitPerimeter=0;entryX=0;entryY=0.5;entryDx=0;entryDy=0;" edge="1" parent="1" source="uNYrG_YwcTX0N1A9Y3Y--1" target="uNYrG_YwcTX0N1A9Y3Y--7">
          <mxGeometry relative="1" as="geometry">
            <mxPoint x="240" y="310" as="sourcePoint" />
            <mxPoint x="400" y="310" as="targetPoint" />
          </mxGeometry>
        </mxCell>
        <mxCell id="uNYrG_YwcTX0N1A9Y3Y--14" value="" style="endArrow=none;html=1;rounded=0;exitX=1;exitY=0.3333333333333333;exitDx=0;exitDy=0;exitPerimeter=0;entryX=0;entryY=0.5;entryDx=0;entryDy=0;" edge="1" parent="1" source="uNYrG_YwcTX0N1A9Y3Y--1" target="uNYrG_YwcTX0N1A9Y3Y--8">
          <mxGeometry relative="1" as="geometry">
            <mxPoint x="90" y="290" as="sourcePoint" />
            <mxPoint x="350" y="80" as="targetPoint" />
          </mxGeometry>
        </mxCell>
        <mxCell id="uNYrG_YwcTX0N1A9Y3Y--16" value="" style="endArrow=none;html=1;rounded=0;exitX=1;exitY=0.3333333333333333;exitDx=0;exitDy=0;exitPerimeter=0;entryX=0;entryY=0.5;entryDx=0;entryDy=0;" edge="1" parent="1" source="uNYrG_YwcTX0N1A9Y3Y--1" target="uNYrG_YwcTX0N1A9Y3Y--10">
          <mxGeometry relative="1" as="geometry">
            <mxPoint x="90" y="290" as="sourcePoint" />
            <mxPoint x="360" y="235" as="targetPoint" />
          </mxGeometry>
        </mxCell>
        <mxCell id="uNYrG_YwcTX0N1A9Y3Y--37" value="" style="endArrow=none;html=1;rounded=0;exitX=1;exitY=0.3333333333333333;exitDx=0;exitDy=0;exitPerimeter=0;entryX=0;entryY=0.5;entryDx=0;entryDy=0;" edge="1" parent="1" source="uNYrG_YwcTX0N1A9Y3Y--1" target="uNYrG_YwcTX0N1A9Y3Y--38">
          <mxGeometry relative="1" as="geometry">
            <mxPoint x="90" y="290" as="sourcePoint" />
            <mxPoint x="270" y="360" as="targetPoint" />
          </mxGeometry>
        </mxCell>
        <mxCell id="uNYrG_YwcTX0N1A9Y3Y--42" value="" style="swimlane;startSize=0;" vertex="1" parent="1">
          <mxGeometry x="100" width="670" height="580" as="geometry" />
        </mxCell>
        <mxCell id="uNYrG_YwcTX0N1A9Y3Y--10" value="Edit in cart" style="ellipse;whiteSpace=wrap;html=1;align=center;" vertex="1" parent="uNYrG_YwcTX0N1A9Y3Y--42">
          <mxGeometry x="190" y="380" width="100" height="40" as="geometry" />
        </mxCell>
        <mxCell id="uNYrG_YwcTX0N1A9Y3Y--38" value="Checkout" style="ellipse;whiteSpace=wrap;html=1;align=center;" vertex="1" parent="uNYrG_YwcTX0N1A9Y3Y--42">
          <mxGeometry x="330" y="310" width="135" height="60" as="geometry" />
        </mxCell>
        <mxCell id="uNYrG_YwcTX0N1A9Y3Y--21" value="Search by category" style="ellipse;whiteSpace=wrap;html=1;align=center;" vertex="1" parent="uNYrG_YwcTX0N1A9Y3Y--42">
          <mxGeometry x="500" y="230" width="120" height="50" as="geometry" />
        </mxCell>
        <mxCell id="uNYrG_YwcTX0N1A9Y3Y--22" value="Search by price" style="ellipse;whiteSpace=wrap;html=1;align=center;" vertex="1" parent="uNYrG_YwcTX0N1A9Y3Y--42">
          <mxGeometry x="490" y="290" width="120" height="50" as="geometry" />
        </mxCell>
        <mxCell id="uNYrG_YwcTX0N1A9Y3Y--20" value="Search by brand" style="ellipse;whiteSpace=wrap;html=1;align=center;" vertex="1" parent="uNYrG_YwcTX0N1A9Y3Y--42">
          <mxGeometry x="530" y="170" width="120" height="50" as="geometry" />
        </mxCell>
        <mxCell id="uNYrG_YwcTX0N1A9Y3Y--39" value="Confirm Delivery and Payment" style="ellipse;whiteSpace=wrap;html=1;align=center;" vertex="1" parent="uNYrG_YwcTX0N1A9Y3Y--42">
          <mxGeometry x="490" y="380" width="160" height="70" as="geometry" />
        </mxCell>
        <mxCell id="uNYrG_YwcTX0N1A9Y3Y--40" value="&amp;lt;&amp;lt;execute&amp;gt;&amp;gt;" style="html=1;verticalAlign=bottom;endArrow=open;dashed=1;endSize=8;rounded=0;exitX=0.5;exitY=0;exitDx=0;exitDy=0;entryX=0.5;entryY=1;entryDx=0;entryDy=0;" edge="1" parent="uNYrG_YwcTX0N1A9Y3Y--42" source="uNYrG_YwcTX0N1A9Y3Y--39" target="uNYrG_YwcTX0N1A9Y3Y--38">
          <mxGeometry y="-10" relative="1" as="geometry">
            <mxPoint x="150" y="530" as="sourcePoint" />
            <mxPoint x="100" y="470" as="targetPoint" />
            <Array as="points" />
            <mxPoint as="offset" />
          </mxGeometry>
        </mxCell>
        <mxCell id="uNYrG_YwcTX0N1A9Y3Y--11" value="Remove product" style="ellipse;whiteSpace=wrap;html=1;align=center;" vertex="1" parent="uNYrG_YwcTX0N1A9Y3Y--42">
          <mxGeometry x="390" y="460" width="140" height="60" as="geometry" />
        </mxCell>
        <mxCell id="uNYrG_YwcTX0N1A9Y3Y--35" value="&amp;lt;&amp;lt;execute&amp;gt;&amp;gt;" style="html=1;verticalAlign=bottom;endArrow=open;dashed=1;endSize=8;rounded=0;exitX=0.5;exitY=0;exitDx=0;exitDy=0;entryX=0.5;entryY=1;entryDx=0;entryDy=0;" edge="1" parent="uNYrG_YwcTX0N1A9Y3Y--42" source="uNYrG_YwcTX0N1A9Y3Y--11" target="uNYrG_YwcTX0N1A9Y3Y--10">
          <mxGeometry y="-10" relative="1" as="geometry">
            <mxPoint x="420" y="415" as="sourcePoint" />
            <mxPoint x="380" y="265" as="targetPoint" />
            <Array as="points" />
            <mxPoint as="offset" />
          </mxGeometry>
        </mxCell>
        <mxCell id="uNYrG_YwcTX0N1A9Y3Y--12" value="Edit quantity product" style="ellipse;whiteSpace=wrap;html=1;align=center;" vertex="1" parent="uNYrG_YwcTX0N1A9Y3Y--42">
          <mxGeometry x="210" y="500" width="140" height="60" as="geometry" />
        </mxCell>
        <mxCell id="uNYrG_YwcTX0N1A9Y3Y--36" value="&amp;lt;&amp;lt;execute&amp;gt;&amp;gt;" style="html=1;verticalAlign=bottom;endArrow=open;dashed=1;endSize=8;rounded=0;exitX=0.5;exitY=0;exitDx=0;exitDy=0;entryX=0.5;entryY=1;entryDx=0;entryDy=0;" edge="1" parent="uNYrG_YwcTX0N1A9Y3Y--42" source="uNYrG_YwcTX0N1A9Y3Y--12" target="uNYrG_YwcTX0N1A9Y3Y--10">
          <mxGeometry y="-10" relative="1" as="geometry">
            <mxPoint x="290" y="520" as="sourcePoint" />
            <mxPoint x="210" y="430" as="targetPoint" />
            <Array as="points" />
            <mxPoint as="offset" />
          </mxGeometry>
        </mxCell>
        <mxCell id="uNYrG_YwcTX0N1A9Y3Y--7" value="View" style="ellipse;whiteSpace=wrap;html=1;align=center;" vertex="1" parent="uNYrG_YwcTX0N1A9Y3Y--42">
          <mxGeometry x="110" y="150" width="100" height="40" as="geometry" />
        </mxCell>
        <mxCell id="uNYrG_YwcTX0N1A9Y3Y--34" value="&amp;lt;&amp;lt;execute&amp;gt;&amp;gt;" style="html=1;verticalAlign=bottom;endArrow=open;dashed=1;endSize=8;rounded=0;exitX=0;exitY=0.5;exitDx=0;exitDy=0;entryX=1;entryY=0.5;entryDx=0;entryDy=0;" edge="1" parent="uNYrG_YwcTX0N1A9Y3Y--42" source="uNYrG_YwcTX0N1A9Y3Y--22" target="uNYrG_YwcTX0N1A9Y3Y--8">
          <mxGeometry y="-10" relative="1" as="geometry">
            <mxPoint x="500" y="355" as="sourcePoint" />
            <mxPoint x="390" y="295" as="targetPoint" />
            <Array as="points" />
            <mxPoint as="offset" />
          </mxGeometry>
        </mxCell>
        <mxCell id="uNYrG_YwcTX0N1A9Y3Y--33" value="&amp;lt;&amp;lt;execute&amp;gt;&amp;gt;" style="html=1;verticalAlign=bottom;endArrow=open;dashed=1;endSize=8;rounded=0;exitX=0;exitY=0.5;exitDx=0;exitDy=0;entryX=1;entryY=0.5;entryDx=0;entryDy=0;" edge="1" parent="uNYrG_YwcTX0N1A9Y3Y--42" source="uNYrG_YwcTX0N1A9Y3Y--21" target="uNYrG_YwcTX0N1A9Y3Y--8">
          <mxGeometry y="-10" relative="1" as="geometry">
            <mxPoint x="540" y="285" as="sourcePoint" />
            <mxPoint x="380" y="285" as="targetPoint" />
            <Array as="points" />
            <mxPoint as="offset" />
          </mxGeometry>
        </mxCell>
        <mxCell id="uNYrG_YwcTX0N1A9Y3Y--32" value="&amp;lt;&amp;lt;execute&amp;gt;&amp;gt;" style="html=1;verticalAlign=bottom;endArrow=open;dashed=1;endSize=8;rounded=0;exitX=0;exitY=0.5;exitDx=0;exitDy=0;entryX=1;entryY=0.5;entryDx=0;entryDy=0;" edge="1" parent="uNYrG_YwcTX0N1A9Y3Y--42" source="uNYrG_YwcTX0N1A9Y3Y--20" target="uNYrG_YwcTX0N1A9Y3Y--8">
          <mxGeometry y="-10" relative="1" as="geometry">
            <mxPoint x="530" y="215" as="sourcePoint" />
            <mxPoint x="370" y="275" as="targetPoint" />
            <Array as="points" />
            <mxPoint as="offset" />
          </mxGeometry>
        </mxCell>
        <mxCell id="uNYrG_YwcTX0N1A9Y3Y--8" value="Search" style="ellipse;whiteSpace=wrap;html=1;align=center;" vertex="1" parent="uNYrG_YwcTX0N1A9Y3Y--42">
          <mxGeometry x="210" y="230" width="100" height="40" as="geometry" />
        </mxCell>
        <mxCell id="uNYrG_YwcTX0N1A9Y3Y--9" value="Add product to cart" style="ellipse;whiteSpace=wrap;html=1;align=center;" vertex="1" parent="uNYrG_YwcTX0N1A9Y3Y--42">
          <mxGeometry x="160" y="30" width="120" height="50" as="geometry" />
        </mxCell>
        <mxCell id="uNYrG_YwcTX0N1A9Y3Y--17" value="Search by name" style="ellipse;whiteSpace=wrap;html=1;align=center;" vertex="1" parent="uNYrG_YwcTX0N1A9Y3Y--42">
          <mxGeometry x="520" y="50" width="120" height="50" as="geometry" />
        </mxCell>
        <mxCell id="uNYrG_YwcTX0N1A9Y3Y--30" value="&amp;lt;&amp;lt;execute&amp;gt;&amp;gt;" style="html=1;verticalAlign=bottom;endArrow=open;dashed=1;endSize=8;rounded=0;exitX=0;exitY=0.5;exitDx=0;exitDy=0;entryX=1;entryY=0.5;entryDx=0;entryDy=0;" edge="1" parent="uNYrG_YwcTX0N1A9Y3Y--42" source="uNYrG_YwcTX0N1A9Y3Y--17" target="uNYrG_YwcTX0N1A9Y3Y--8">
          <mxGeometry y="-10" relative="1" as="geometry">
            <mxPoint x="260" y="310" as="sourcePoint" />
            <mxPoint x="180" y="310" as="targetPoint" />
            <Array as="points" />
            <mxPoint as="offset" />
          </mxGeometry>
        </mxCell>
        <mxCell id="uNYrG_YwcTX0N1A9Y3Y--19" value="Search by color" style="ellipse;whiteSpace=wrap;html=1;align=center;" vertex="1" parent="uNYrG_YwcTX0N1A9Y3Y--42">
          <mxGeometry x="520" y="110" width="120" height="50" as="geometry" />
        </mxCell>
        <mxCell id="uNYrG_YwcTX0N1A9Y3Y--31" value="&amp;lt;&amp;lt;execute&amp;gt;&amp;gt;" style="html=1;verticalAlign=bottom;endArrow=open;dashed=1;endSize=8;rounded=0;exitX=0;exitY=0.5;exitDx=0;exitDy=0;entryX=1;entryY=0.5;entryDx=0;entryDy=0;" edge="1" parent="uNYrG_YwcTX0N1A9Y3Y--42" source="uNYrG_YwcTX0N1A9Y3Y--19" target="uNYrG_YwcTX0N1A9Y3Y--8">
          <mxGeometry y="-10" relative="1" as="geometry">
            <mxPoint x="470" y="135" as="sourcePoint" />
            <mxPoint x="360" y="265" as="targetPoint" />
            <Array as="points" />
            <mxPoint as="offset" />
          </mxGeometry>
        </mxCell>
        <mxCell id="uNYrG_YwcTX0N1A9Y3Y--43" value="Add product to cart" style="ellipse;whiteSpace=wrap;html=1;align=center;" vertex="1" parent="uNYrG_YwcTX0N1A9Y3Y--42">
          <mxGeometry x="250" y="100" width="120" height="50" as="geometry" />
        </mxCell>
        <mxCell id="uNYrG_YwcTX0N1A9Y3Y--67" value="&amp;lt;&amp;lt;execute&amp;gt;&amp;gt;" style="html=1;verticalAlign=bottom;endArrow=open;dashed=1;endSize=8;rounded=0;exitX=0.5;exitY=1;exitDx=0;exitDy=0;entryX=0.5;entryY=0;entryDx=0;entryDy=0;" edge="1" parent="uNYrG_YwcTX0N1A9Y3Y--42" source="uNYrG_YwcTX0N1A9Y3Y--9" target="uNYrG_YwcTX0N1A9Y3Y--7">
          <mxGeometry y="-10" relative="1" as="geometry">
            <mxPoint x="630" y="85" as="sourcePoint" />
            <mxPoint x="420" y="260" as="targetPoint" />
            <Array as="points" />
            <mxPoint as="offset" />
          </mxGeometry>
        </mxCell>
        <mxCell id="uNYrG_YwcTX0N1A9Y3Y--71" value="&amp;lt;&amp;lt;execute&amp;gt;&amp;gt;" style="html=1;verticalAlign=bottom;endArrow=open;dashed=1;endSize=8;rounded=0;exitX=0;exitY=0.5;exitDx=0;exitDy=0;entryX=0.5;entryY=0;entryDx=0;entryDy=0;" edge="1" parent="uNYrG_YwcTX0N1A9Y3Y--42" source="uNYrG_YwcTX0N1A9Y3Y--43" target="uNYrG_YwcTX0N1A9Y3Y--7">
          <mxGeometry y="-10" relative="1" as="geometry">
            <mxPoint x="330" y="90" as="sourcePoint" />
            <mxPoint x="270" y="160" as="targetPoint" />
            <Array as="points" />
            <mxPoint as="offset" />
          </mxGeometry>
        </mxCell>
      </root>
    </mxGraphModel>
  </diagram>
</mxfile>
